<svg width="51" height="51" viewBox="0 0 51 51" fill="none" xmlns="http://www.w3.org/2000/svg">
<circle cx="25.5" cy="25.5" r="25.5" fill="#4B3575"/>
<path d="M34.9882 22.277H31.6643C31.5365 21.5668 31.2986 20.9418 30.9506 20.402C30.6025 19.8622 30.1764 19.4041 29.6721 19.0277C29.1679 18.6513 28.6032 18.3672 27.9782 18.1754C27.3604 17.9837 26.7034 17.8878 26.0074 17.8878C24.7503 17.8878 23.6246 18.2038 22.6302 18.8359C21.643 19.468 20.8618 20.3949 20.2865 21.6165C19.7183 22.8381 19.4342 24.3295 19.4342 26.0909C19.4342 27.8665 19.7183 29.3651 20.2865 30.5866C20.8618 31.8082 21.6466 32.7315 22.6409 33.3565C23.6352 33.9815 24.7538 34.294 25.9967 34.294C26.6856 34.294 27.339 34.2017 27.9569 34.017C28.5819 33.8253 29.1466 33.5447 29.6508 33.1754C30.1551 32.8061 30.5812 32.3551 30.9292 31.8224C31.2844 31.2827 31.5294 30.6648 31.6643 29.9688L34.9882 29.9794C34.8106 31.0518 34.4662 32.0391 33.9548 32.9411C33.4506 33.8359 32.8007 34.6101 32.0052 35.2635C31.2169 35.9098 30.3149 36.4105 29.2993 36.7656C28.2836 37.1207 27.1757 37.2983 25.9754 37.2983C24.0862 37.2983 22.403 36.8509 20.9257 35.956C19.4484 35.054 18.2836 33.7649 17.4314 32.0888C16.5862 30.4126 16.1636 28.4134 16.1636 26.0909C16.1636 23.7614 16.5898 21.7621 17.442 20.093C18.2943 18.4169 19.4591 17.1314 20.9363 16.2365C22.4136 15.3345 24.0933 14.8835 25.9754 14.8835C27.1331 14.8835 28.2126 15.0504 29.214 15.3842C30.2226 15.7109 31.1281 16.1939 31.9307 16.8331C32.7332 17.4652 33.3973 18.2393 33.9229 19.1555C34.4484 20.0646 34.8035 21.1051 34.9882 22.277Z" fill="white"/>
</svg>
