<svg width="51" height="51" viewBox="0 0 51 51" fill="none" xmlns="http://www.w3.org/2000/svg">
<circle cx="25.5" cy="25.5" r="25.5" fill="#55383A"/>
<path d="M28.1008 15.1818H31.382V30.6506C31.382 32.0497 31.105 33.2464 30.551 34.2408C30.0042 35.2351 29.2336 35.995 28.2393 36.5206C27.2449 37.0391 26.0802 37.2983 24.7449 37.2983C23.5162 37.2983 22.4118 37.0746 21.4317 36.6271C20.4587 36.1797 19.6881 35.5298 19.1199 34.6776C18.5589 33.8182 18.2783 32.7741 18.2783 31.5455H21.5489C21.5489 32.1491 21.6874 32.6712 21.9644 33.1115C22.2485 33.5518 22.6356 33.8963 23.1256 34.1449C23.6228 34.3864 24.191 34.5071 24.8302 34.5071C25.5262 34.5071 26.1157 34.3615 26.5986 34.0703C27.0887 33.772 27.4616 33.3352 27.7172 32.7599C27.9729 32.1847 28.1008 31.4815 28.1008 30.6506V15.1818Z" fill="white"/>
</svg>
