<svg width="51" height="51" viewBox="0 0 51 51" fill="none" xmlns="http://www.w3.org/2000/svg">
<circle cx="25.5" cy="25.5" r="25.5" fill="#C81B1B"/>
<path d="M18.229 37V15.1818H26.006C27.6964 15.1818 29.0991 15.473 30.2141 16.0554C31.3363 16.6378 32.1744 17.4439 32.7283 18.4737C33.2823 19.4964 33.5593 20.679 33.5593 22.0213C33.5593 23.3565 33.2788 24.532 32.7177 25.5476C32.1637 26.5561 31.3256 27.3409 30.2035 27.902C29.0884 28.4631 27.6857 28.7436 25.9954 28.7436H20.104V25.9098H25.6971C26.7624 25.9098 27.6289 25.7571 28.2965 25.4517C28.9712 25.1463 29.4648 24.7024 29.7773 24.12C30.0898 23.5376 30.2461 22.8381 30.2461 22.0213C30.2461 21.1974 30.0863 20.4837 29.7667 19.88C29.4542 19.2763 28.9606 18.8146 28.2859 18.495C27.6183 18.1683 26.7411 18.005 25.6545 18.005H21.521V37H18.229ZM28.9996 27.1562L34.3903 37H30.6403L25.3562 27.1562H28.9996Z" fill="white"/>
</svg>
